<mxfile host="app.diagrams.net" modified="2024-02-06T11:15:21.322Z" agent="Mozilla/5.0 (Windows NT 10.0; Win64; x64) AppleWebKit/537.36 (KHTML, like Gecko) Chrome/121.0.0.0 Safari/537.36" etag="OY7uxzPpyq_rYuzNgnQ1" version="22.1.17" type="github">
  <diagram name="第 1 页" id="GogT9lOJ3fSnXhW_0H4U">
    <mxGraphModel dx="1221" dy="777" grid="1" gridSize="10" guides="1" tooltips="1" connect="1" arrows="1" fold="1" page="1" pageScale="1" pageWidth="827" pageHeight="1169" math="0" shadow="0">
      <root>
        <mxCell id="0" />
        <mxCell id="1" parent="0" />
        <mxCell id="I_q6hMHoVCfpZiTIFzcW-4" style="edgeStyle=orthogonalEdgeStyle;rounded=0;orthogonalLoop=1;jettySize=auto;html=1;entryX=0.5;entryY=0;entryDx=0;entryDy=0;" edge="1" parent="1" source="I_q6hMHoVCfpZiTIFzcW-1" target="I_q6hMHoVCfpZiTIFzcW-3">
          <mxGeometry relative="1" as="geometry" />
        </mxCell>
        <mxCell id="I_q6hMHoVCfpZiTIFzcW-8" value="通信失败" style="edgeLabel;html=1;align=center;verticalAlign=middle;resizable=0;points=[];" vertex="1" connectable="0" parent="I_q6hMHoVCfpZiTIFzcW-4">
          <mxGeometry x="-0.2" y="-1" relative="1" as="geometry">
            <mxPoint as="offset" />
          </mxGeometry>
        </mxCell>
        <mxCell id="I_q6hMHoVCfpZiTIFzcW-11" style="edgeStyle=orthogonalEdgeStyle;rounded=0;orthogonalLoop=1;jettySize=auto;html=1;exitX=1;exitY=0;exitDx=0;exitDy=0;entryX=0;entryY=0;entryDx=0;entryDy=0;" edge="1" parent="1" source="I_q6hMHoVCfpZiTIFzcW-1" target="I_q6hMHoVCfpZiTIFzcW-2">
          <mxGeometry relative="1" as="geometry" />
        </mxCell>
        <mxCell id="I_q6hMHoVCfpZiTIFzcW-13" value="等待 Map 任务执行结束" style="edgeLabel;html=1;align=center;verticalAlign=middle;resizable=0;points=[];" vertex="1" connectable="0" parent="I_q6hMHoVCfpZiTIFzcW-11">
          <mxGeometry x="-0.0525" y="-3" relative="1" as="geometry">
            <mxPoint as="offset" />
          </mxGeometry>
        </mxCell>
        <mxCell id="I_q6hMHoVCfpZiTIFzcW-1" value="Process" style="ellipse;whiteSpace=wrap;html=1;" vertex="1" parent="1">
          <mxGeometry x="240" y="200" width="120" height="80" as="geometry" />
        </mxCell>
        <mxCell id="I_q6hMHoVCfpZiTIFzcW-5" style="edgeStyle=orthogonalEdgeStyle;rounded=0;orthogonalLoop=1;jettySize=auto;html=1;entryX=1;entryY=0.5;entryDx=0;entryDy=0;exitX=0.5;exitY=1;exitDx=0;exitDy=0;" edge="1" parent="1" source="I_q6hMHoVCfpZiTIFzcW-2" target="I_q6hMHoVCfpZiTIFzcW-3">
          <mxGeometry relative="1" as="geometry" />
        </mxCell>
        <mxCell id="I_q6hMHoVCfpZiTIFzcW-9" value="通信失败" style="edgeLabel;html=1;align=center;verticalAlign=middle;resizable=0;points=[];" vertex="1" connectable="0" parent="I_q6hMHoVCfpZiTIFzcW-5">
          <mxGeometry x="0.1524" y="-1" relative="1" as="geometry">
            <mxPoint as="offset" />
          </mxGeometry>
        </mxCell>
        <mxCell id="I_q6hMHoVCfpZiTIFzcW-7" style="edgeStyle=orthogonalEdgeStyle;rounded=0;orthogonalLoop=1;jettySize=auto;html=1;exitX=0;exitY=1;exitDx=0;exitDy=0;entryX=1;entryY=1;entryDx=0;entryDy=0;" edge="1" parent="1" source="I_q6hMHoVCfpZiTIFzcW-2" target="I_q6hMHoVCfpZiTIFzcW-1">
          <mxGeometry relative="1" as="geometry" />
        </mxCell>
        <mxCell id="I_q6hMHoVCfpZiTIFzcW-12" value="获取到任务" style="edgeLabel;html=1;align=center;verticalAlign=middle;resizable=0;points=[];" vertex="1" connectable="0" parent="I_q6hMHoVCfpZiTIFzcW-7">
          <mxGeometry x="-0.0444" y="-1" relative="1" as="geometry">
            <mxPoint as="offset" />
          </mxGeometry>
        </mxCell>
        <mxCell id="I_q6hMHoVCfpZiTIFzcW-2" value="Wait" style="ellipse;whiteSpace=wrap;html=1;" vertex="1" parent="1">
          <mxGeometry x="490" y="200" width="120" height="80" as="geometry" />
        </mxCell>
        <mxCell id="I_q6hMHoVCfpZiTIFzcW-3" value="Exit" style="ellipse;whiteSpace=wrap;html=1;" vertex="1" parent="1">
          <mxGeometry x="240" y="390" width="120" height="80" as="geometry" />
        </mxCell>
      </root>
    </mxGraphModel>
  </diagram>
</mxfile>
